<svg width="181" height="168" viewBox="0 0 181 168" fill="none" xmlns="http://www.w3.org/2000/svg">
<path d="M173.97 10.86C176.693 10.86 178.9 8.65277 178.9 5.93001C178.9 3.20724 176.693 1 173.97 1C171.247 1 169.04 3.20724 169.04 5.93001C169.04 8.65277 171.247 10.86 173.97 10.86Z" fill="#78AA43" stroke="#78AA43" stroke-miterlimit="10"/>
<path d="M132.73 11.8C135.712 11.8 138.13 9.38235 138.13 6.40001C138.13 3.41767 135.712 1 132.73 1C129.748 1 127.33 3.41767 127.33 6.40001C127.33 9.38235 129.748 11.8 132.73 11.8Z" fill="#78AA43" stroke="#78AA43" stroke-miterlimit="10"/>
<path d="M91.4998 10.86C94.2226 10.86 96.4298 8.65277 96.4298 5.93001C96.4298 3.20724 94.2226 1 91.4998 1C88.7771 1 86.5698 3.20724 86.5698 5.93001C86.5698 8.65277 88.7771 10.86 91.4998 10.86Z" fill="#78AA43" stroke="#78AA43" stroke-miterlimit="10"/>
<path d="M50.2701 11.8C53.2525 11.8 55.6701 9.38235 55.6701 6.40001C55.6701 3.41767 53.2525 1 50.2701 1C47.2878 1 44.8701 3.41767 44.8701 6.40001C44.8701 9.38235 47.2878 11.8 50.2701 11.8Z" fill="#78AA43" stroke="#78AA43" stroke-miterlimit="10"/>
<path d="M9.03964 11.8C12.022 11.8 14.4397 9.38235 14.4397 6.40001C14.4397 3.41767 12.022 1 9.03964 1C6.0573 1 3.63965 3.41767 3.63965 6.40001C3.63965 9.38235 6.0573 11.8 9.03964 11.8Z" fill="#78AA43" stroke="#78AA43" stroke-miterlimit="10"/>
<path d="M74.5498 162.18C92.1069 162.18 106.34 147.947 106.34 130.39C106.34 112.833 92.1069 98.5999 74.5498 98.5999C56.9926 98.5999 42.7598 112.833 42.7598 130.39C42.7598 147.947 56.9926 162.18 74.5498 162.18Z" stroke="white" stroke-width="2.5" stroke-miterlimit="10"/>
<path d="M147.11 162.18C164.667 162.18 178.9 147.947 178.9 130.39C178.9 112.833 164.667 98.5999 147.11 98.5999C129.553 98.5999 115.32 112.833 115.32 130.39C115.32 147.947 129.553 162.18 147.11 162.18Z" stroke="white" stroke-width="2.5" stroke-miterlimit="10"/>
<path d="M147.11 89.9799C164.667 89.9799 178.9 75.747 178.9 58.1899C178.9 40.6328 164.667 26.3999 147.11 26.3999C129.553 26.3999 115.32 40.6328 115.32 58.1899C115.32 75.747 129.553 89.9799 147.11 89.9799Z" stroke="white" stroke-width="2.5" stroke-miterlimit="10"/>
<path d="M74.5498 89.9799C92.1069 89.9799 106.34 75.747 106.34 58.1899C106.34 40.6328 92.1069 26.3999 74.5498 26.3999C56.9926 26.3999 42.7598 40.6328 42.7598 58.1899C42.7598 75.747 56.9926 89.9799 74.5498 89.9799Z" stroke="white" stroke-width="2.5" stroke-miterlimit="10"/>
<path d="M6.74561 44.0702V57.1H4.04297V25.1078H14.9414C18.2666 25.1078 20.8887 25.9574 22.8076 27.6566C24.7412 29.3558 25.708 31.6923 25.708 34.6659C25.708 37.6688 24.7778 39.9906 22.9175 41.6312C21.0718 43.2572 18.3911 44.0702 14.8755 44.0702H6.74561ZM6.74561 41.785H14.9414C17.5635 41.785 19.563 41.1625 20.9399 39.9174C22.3169 38.6722 23.0054 36.9364 23.0054 34.7098C23.0054 32.4979 22.3169 30.7401 20.9399 29.4364C19.5776 28.118 17.6367 27.4442 15.1172 27.4149H6.74561V41.785ZM21.3135 101.135H6.78955L3.49365 110.1H0.65918L12.7661 78.1078H15.3369L27.4438 110.1H24.6313L21.3135 101.135ZM7.62451 98.828H20.4565L14.0405 81.4037L7.62451 98.828ZM13.7769 144.643L22.7856 131.108H26.0156L15.4248 146.884L26.3452 163.1H23.0933L13.7769 149.125L4.4165 163.1H1.2085L12.1509 146.884L1.53809 131.108H4.76807L13.7769 144.643Z" fill="white"/>
</svg>
